<mxfile host="app.diagrams.net" modified="2023-12-24T12:13:27.559Z" agent="Mozilla/5.0 (Macintosh; Intel Mac OS X 10_15_7) AppleWebKit/537.36 (KHTML, like Gecko) Chrome/120.0.0.0 Safari/537.36" version="22.1.11" etag="OLzvPKZhfy76Eyo__76H" type="github">
  <diagram name="第 1 页" id="dGi1Vyo7oyO0hp9A6TmC">
    <mxGraphModel>
      <root>
        <mxCell id="0" />
        <mxCell id="1" parent="0" />
      </root>
    </mxGraphModel>
  </diagram>
</mxfile>
